<svg xmlns="http://www.w3.org/2000/svg" version="1.1" width="328px" height="328px"
    style="shape-rendering:geometricPrecision; text-rendering:geometricPrecision; image-rendering:optimizeQuality; fill-rule:evenodd; clip-rule:evenodd"
    xmlns:xlink="http://www.w3.org/1999/xlink">
    <g>
        <path style="opacity:0.988" fill="#77de00"
            d="M 42.5,-0.5 C 123.167,-0.5 203.833,-0.5 284.5,-0.5C 296.932,2.97462 307.432,9.64128 316,19.5C 317.756,22.0729 319.256,24.7396 320.5,27.5C 317.978,25.8277 315.312,24.3277 312.5,23C 305.462,21.2842 298.296,19.7842 291,18.5C 288.509,18.708 286.175,19.3747 284,20.5C 283.055,20.0946 282.388,19.428 282,18.5C 277.898,20.1333 273.565,21.1333 269,21.5C 268.667,21.1667 268.333,20.8333 268,20.5C 260.565,21.4327 253.065,22.2661 245.5,23C 241.568,24.5072 237.568,25.8406 233.5,27C 222.751,34.6454 210.751,39.4787 197.5,41.5C 191.338,43.4423 185.338,45.7756 179.5,48.5C 169.158,51.1306 158.825,51.1306 148.5,48.5C 147.034,47.8645 145.7,47.0312 144.5,46C 132.866,42.5401 121.199,39.2068 109.5,36C 105.074,33.8811 100.907,31.3811 97,28.5C 83.1253,22.8238 68.6253,20.1571 53.5,20.5C 51.6161,20.2837 49.9494,19.617 48.5,18.5C 47.8333,19.1667 47.1667,19.8333 46.5,20.5C 43.8687,19.2757 41.0354,18.609 38,18.5C 26.7104,19.1106 16.2104,22.1106 6.5,27.5C 8.95806,21.6949 12.6247,16.6949 17.5,12.5C 21.8595,9.31036 26.3595,6.31036 31,3.5C 35.1084,2.63207 38.9418,1.29874 42.5,-0.5 Z" />
    </g>
    <g>
        <path style="opacity:0.99" fill="#72dc00"
            d="M 320.5,27.5 C 321.804,28.9869 322.97,30.6536 324,32.5C 324.701,36.1091 325.868,39.4425 327.5,42.5C 327.5,49.1667 327.5,55.8333 327.5,62.5C 320.834,51.3365 311.5,43.1699 299.5,38C 293.5,37.3333 287.5,37.3333 281.5,38C 273.053,41.6204 264.72,45.4537 256.5,49.5C 255.789,45.7193 256.955,42.7193 260,40.5C 260.483,39.552 260.649,38.552 260.5,37.5C 257.813,37.3359 255.146,37.5026 252.5,38C 239.194,45.4713 227.527,54.9713 217.5,66.5C 215.615,67.6993 213.782,69.0326 212,70.5C 210.413,69.6633 209.58,68.3299 209.5,66.5C 210.361,63.4727 211.861,60.806 214,58.5C 214.49,57.2068 214.657,55.8734 214.5,54.5C 212.801,54.3398 211.134,54.5065 209.5,55C 199.543,61.1446 189.21,66.4779 178.5,71C 168.167,74.3333 157.833,74.3333 147.5,71C 136.671,65.7527 126.005,60.2527 115.5,54.5C 114,54.4528 113,55.1195 112.5,56.5C 115.068,59.3962 116.735,62.7295 117.5,66.5C 117.72,69.9682 116.387,70.9682 113.5,69.5C 102.553,56.5497 89.553,46.2163 74.5,38.5C 71.9135,37.52 69.2469,37.1866 66.5,37.5C 66.918,40.4389 68.418,42.7722 71,44.5C 71.4935,46.1341 71.6602,47.8008 71.5,49.5C 65.6587,48.1774 60.3254,45.6774 55.5,42C 31.2018,32.3757 13.2018,39.2091 1.5,62.5C 0.833333,62.8333 0.166667,63.1667 -0.5,63.5C -0.5,56.5 -0.5,49.5 -0.5,42.5C 1.13207,39.4425 2.29874,36.1091 3,32.5C 4.02978,30.6536 5.19645,28.9869 6.5,27.5C 16.2104,22.1106 26.7104,19.1106 38,18.5C 41.0354,18.609 43.8687,19.2757 46.5,20.5C 47.1667,19.8333 47.8333,19.1667 48.5,18.5C 49.9494,19.617 51.6161,20.2837 53.5,20.5C 68.6253,20.1571 83.1253,22.8238 97,28.5C 100.907,31.3811 105.074,33.8811 109.5,36C 121.199,39.2068 132.866,42.5401 144.5,46C 145.7,47.0312 147.034,47.8645 148.5,48.5C 158.825,51.1306 169.158,51.1306 179.5,48.5C 185.338,45.7756 191.338,43.4423 197.5,41.5C 210.751,39.4787 222.751,34.6454 233.5,27C 237.568,25.8406 241.568,24.5072 245.5,23C 253.065,22.2661 260.565,21.4327 268,20.5C 268.333,20.8333 268.667,21.1667 269,21.5C 273.565,21.1333 277.898,20.1333 282,18.5C 282.388,19.428 283.055,20.0946 284,20.5C 286.175,19.3747 288.509,18.708 291,18.5C 298.296,19.7842 305.462,21.2842 312.5,23C 315.312,24.3277 317.978,25.8277 320.5,27.5 Z" />
    </g>
    <g>
        <path style="opacity:1" fill="#abf000"
            d="M 327.5,62.5 C 327.5,63.5 327.5,64.5 327.5,65.5C 292,66.8302 256.5,66.8302 221,65.5C 219.959,67.3115 218.793,67.6448 217.5,66.5C 227.527,54.9713 239.194,45.4713 252.5,38C 255.146,37.5026 257.813,37.3359 260.5,37.5C 260.649,38.552 260.483,39.552 260,40.5C 256.955,42.7193 255.789,45.7193 256.5,49.5C 264.72,45.4537 273.053,41.6204 281.5,38C 287.5,37.3333 293.5,37.3333 299.5,38C 311.5,43.1699 320.834,51.3365 327.5,62.5 Z" />
    </g>
    <g>
        <path style="opacity:1" fill="#acf000"
            d="M 113.5,69.5 C 113.103,70.525 112.437,70.6917 111.5,70C 109.957,68.1217 108.124,66.6217 106,65.5C 71.5714,66.6624 37.0714,66.8291 2.5,66C 1.66337,64.9887 1.33003,63.8221 1.5,62.5C 13.2018,39.2091 31.2018,32.3757 55.5,42C 60.3254,45.6774 65.6587,48.1774 71.5,49.5C 71.6602,47.8008 71.4935,46.1341 71,44.5C 68.418,42.7722 66.918,40.4389 66.5,37.5C 69.2469,37.1866 71.9135,37.52 74.5,38.5C 89.553,46.2163 102.553,56.5497 113.5,69.5 Z" />
    </g>
    <g>
        <path style="opacity:1" fill="#a5ed00"
            d="M 217.5,66.5 C 218.793,67.6448 219.959,67.3115 221,65.5C 256.5,66.8302 292,66.8302 327.5,65.5C 327.5,70.8333 327.5,76.1667 327.5,81.5C 218.167,81.5 108.833,81.5 -0.5,81.5C -0.5,75.5 -0.5,69.5 -0.5,63.5C 0.166667,63.1667 0.833333,62.8333 1.5,62.5C 1.33003,63.8221 1.66337,64.9887 2.5,66C 37.0714,66.8291 71.5714,66.6624 106,65.5C 108.124,66.6217 109.957,68.1217 111.5,70C 112.437,70.6917 113.103,70.525 113.5,69.5C 116.387,70.9682 117.72,69.9682 117.5,66.5C 116.735,62.7295 115.068,59.3962 112.5,56.5C 113,55.1195 114,54.4528 115.5,54.5C 126.005,60.2527 136.671,65.7527 147.5,71C 157.833,74.3333 168.167,74.3333 178.5,71C 189.21,66.4779 199.543,61.1446 209.5,55C 211.134,54.5065 212.801,54.3398 214.5,54.5C 214.657,55.8734 214.49,57.2068 214,58.5C 211.861,60.806 210.361,63.4727 209.5,66.5C 209.58,68.3299 210.413,69.6633 212,70.5C 213.782,69.0326 215.615,67.6993 217.5,66.5 Z" />
    </g>
    <g>
        <path style="opacity:1" fill="#9ee901"
            d="M -0.5,81.5 C 108.833,81.5 218.167,81.5 327.5,81.5C 327.5,92.1667 327.5,102.833 327.5,113.5C 316.828,113.333 306.161,113.5 295.5,114C 294.748,114.671 294.414,115.504 294.5,116.5C 289.697,110.865 284.363,105.698 278.5,101C 274.607,98.9833 270.607,97.4833 266.5,96.5C 259.167,93.8333 251.833,93.8333 244.5,96.5C 242.883,97.038 241.216,97.3713 239.5,97.5C 187.004,96.4146 136.004,96.4146 86.5,97.5C 84.901,97.7678 83.5676,97.4345 82.5,96.5C 76.5662,94.5048 70.5662,94.1715 64.5,95.5C 61.0314,95.5465 57.698,96.2132 54.5,97.5C 53.5041,97.5858 52.6708,97.2524 52,96.5C 49.0797,98.1336 46.2464,99.967 43.5,102C 28.8371,102.5 14.1705,102.667 -0.5,102.5C -0.5,95.5 -0.5,88.5 -0.5,81.5 Z" />
    </g>
    <g>
        <path style="opacity:1" fill="#fcfdfb"
            d="M 64.5,95.5 C 70.5,95.8333 76.5,96.1667 82.5,96.5C 83.5676,97.4345 84.901,97.7678 86.5,97.5C 94.1661,101.017 100.833,106.017 106.5,112.5C 115.93,125.204 120.263,139.538 119.5,155.5C 118.676,158.764 118.342,162.098 118.5,165.5C 117.289,170.686 115.623,175.686 113.5,180.5C 100.214,206.09 79.8802,214.59 52.5,206C 48.6784,203.67 45.0117,201.17 41.5,198.5C 31.721,188.276 25.721,176.276 23.5,162.5C 22.197,154.864 22.197,147.197 23.5,139.5C 24.9459,136.746 25.9459,133.746 26.5,130.5C 31.5071,115.826 40.8404,104.826 54.5,97.5C 57.698,96.2132 61.0314,95.5465 64.5,95.5 Z" />
    </g>
    <g>
        <path style="opacity:1" fill="#eefbd2"
            d="M 64.5,95.5 C 70.5662,94.1715 76.5662,94.5048 82.5,96.5C 76.5,96.1667 70.5,95.8333 64.5,95.5 Z" />
    </g>
    <g>
        <path style="opacity:1" fill="#f1fcda"
            d="M 266.5,96.5 C 259.167,95.1667 251.833,95.1667 244.5,96.5C 251.833,93.8333 259.167,93.8333 266.5,96.5 Z" />
    </g>
    <g>
        <path style="opacity:1" fill="#fcfdfc"
            d="M 266.5,96.5 C 270.607,97.4833 274.607,98.9833 278.5,101C 284.363,105.698 289.697,110.865 294.5,116.5C 298.163,122.833 300.83,129.5 302.5,136.5C 303.166,144.483 303.499,152.483 303.5,160.5C 302.228,167.515 300.561,174.515 298.5,181.5C 291.294,195.204 280.294,204.371 265.5,209C 247.285,212.375 232.452,206.875 221,192.5C 216.428,186.684 212.928,180.351 210.5,173.5C 210.634,171.708 210.301,170.042 209.5,168.5C 207.906,160.601 207.24,152.601 207.5,144.5C 208.404,143.791 208.737,142.791 208.5,141.5C 210.245,137.8 211.245,133.8 211.5,129.5C 214.359,122.328 218.026,115.662 222.5,109.5C 228.029,105.242 233.695,101.242 239.5,97.5C 241.216,97.3713 242.883,97.038 244.5,96.5C 251.833,95.1667 259.167,95.1667 266.5,96.5 Z" />
    </g>
    <g>
        <path style="opacity:1" fill="#99e604"
            d="M 239.5,97.5 C 233.695,101.242 228.029,105.242 222.5,109.5C 219.937,110.592 217.77,112.258 216,114.5C 185.53,113.83 155.03,113.163 124.5,112.5C 119.968,113.14 115.468,113.806 111,114.5C 109.333,113.5 108,112.167 107,110.5C 106.536,111.094 106.369,111.761 106.5,112.5C 100.833,106.017 94.1661,101.017 86.5,97.5C 136.004,96.4146 187.004,96.4146 239.5,97.5 Z" />
    </g>
    <g>
        <path style="opacity:1" fill="#93e303"
            d="M 54.5,97.5 C 40.8404,104.826 31.5071,115.826 26.5,130.5C 25.8333,130.833 25.1667,131.167 24.5,131.5C 23.0836,134.875 21.5836,138.875 20,143.5C 19.5172,142.552 19.3505,141.552 19.5,140.5C 12.8333,140.5 6.16667,140.5 -0.5,140.5C -0.5,127.833 -0.5,115.167 -0.5,102.5C 14.1705,102.667 28.8371,102.5 43.5,102C 46.2464,99.967 49.0797,98.1336 52,96.5C 52.6708,97.2524 53.5041,97.5858 54.5,97.5 Z" />
    </g>
    <g>
        <path style="opacity:1" fill="#91e203"
            d="M 222.5,109.5 C 218.026,115.662 214.359,122.328 211.5,129.5C 209.755,133.2 208.755,137.2 208.5,141.5C 208.737,142.791 208.404,143.791 207.5,144.5C 207.663,142.143 207.497,139.81 207,137.5C 206.529,139.246 205.862,140.913 205,142.5C 177.726,140.514 150.226,139.847 122.5,140.5C 122.649,141.552 122.483,142.552 122,143.5C 121.784,141.616 121.117,139.949 120,138.5C 120.583,144.317 120.416,149.984 119.5,155.5C 120.263,139.538 115.93,125.204 106.5,112.5C 106.369,111.761 106.536,111.094 107,110.5C 108,112.167 109.333,113.5 111,114.5C 115.468,113.806 119.968,113.14 124.5,112.5C 155.03,113.163 185.53,113.83 216,114.5C 217.77,112.258 219.937,110.592 222.5,109.5 Z" />
    </g>
    <g>
        <path style="opacity:1" fill="#91e206"
            d="M 327.5,113.5 C 327.5,122.5 327.5,131.5 327.5,140.5C 320.833,140.5 314.167,140.5 307.5,140.5C 307.328,144.971 306.494,145.304 305,141.5C 304.536,142.094 304.369,142.761 304.5,143.5C 303.833,141.167 303.167,138.833 302.5,136.5C 300.83,129.5 298.163,122.833 294.5,116.5C 294.414,115.504 294.748,114.671 295.5,114C 306.161,113.5 316.828,113.333 327.5,113.5 Z" />
    </g>
    <g>
        <path style="opacity:1" fill="#3e3e3e"
            d="M 279.5,140.5 C 280.32,146.797 280.653,153.131 280.5,159.5C 278.477,171.511 271.81,179.511 260.5,183.5C 256.102,183.706 251.768,183.373 247.5,182.5C 237.864,178.536 231.864,171.536 229.5,161.5C 228.88,155.074 229.547,149.074 231.5,143.5C 238.486,146.955 244.153,145.288 248.5,138.5C 249.632,136.306 250.299,133.973 250.5,131.5C 249.492,128.155 248.492,124.822 247.5,121.5C 263.237,119.613 273.903,125.947 279.5,140.5 Z" />
    </g>
    <g>
        <path style="opacity:1" fill="#3e3e3e"
            d="M 95.5,143.5 C 96.2949,147.785 96.6282,152.119 96.5,156.5C 94.9943,169.874 87.9943,178.874 75.5,183.5C 70.7971,183.563 66.1304,183.229 61.5,182.5C 46.0118,173.709 40.6785,160.709 45.5,143.5C 57.2148,147.911 63.5482,143.911 64.5,131.5C 64.5458,127.614 63.8791,123.947 62.5,120.5C 79.8491,119.197 90.8491,126.864 95.5,143.5 Z" />
    </g>
    <g>
        <path style="opacity:1" fill="#c3ee7c"
            d="M 26.5,130.5 C 25.9459,133.746 24.9459,136.746 23.5,139.5C 23.8333,136.833 24.1667,134.167 24.5,131.5C 25.1667,131.167 25.8333,130.833 26.5,130.5 Z" />
    </g>
    <g>
        <path style="opacity:1" fill="#e8f8cc"
            d="M 211.5,129.5 C 211.245,133.8 210.245,137.8 208.5,141.5C 208.755,137.2 209.755,133.2 211.5,129.5 Z" />
    </g>
    <g>
        <path style="opacity:1" fill="#85dc00"
            d="M 327.5,140.5 C 327.5,146.833 327.5,153.167 327.5,159.5C 320.578,159.188 313.744,159.521 307,160.5C 306.667,157.5 306.333,154.5 306,151.5C 305.79,153.058 305.29,154.391 304.5,155.5C 304.5,151.5 304.5,147.5 304.5,143.5C 304.369,142.761 304.536,142.094 305,141.5C 306.494,145.304 307.328,144.971 307.5,140.5C 314.167,140.5 320.833,140.5 327.5,140.5 Z" />
    </g>
    <g>
        <path style="opacity:1" fill="#c6c6c6"
            d="M 95.5,143.5 C 97.0334,145.634 97.7001,148.134 97.5,151C 97.4944,153.033 97.1611,154.866 96.5,156.5C 96.6282,152.119 96.2949,147.785 95.5,143.5 Z" />
    </g>
    <g>
        <path style="opacity:1" fill="#737373"
            d="M 231.5,143.5 C 229.547,149.074 228.88,155.074 229.5,161.5C 228.51,155.355 228.177,149.022 228.5,142.5C 229.791,142.263 230.791,142.596 231.5,143.5 Z" />
    </g>
    <g>
        <path style="opacity:1" fill="#e1f6c0"
            d="M 302.5,136.5 C 303.167,138.833 303.833,141.167 304.5,143.5C 304.5,147.5 304.5,151.5 304.5,155.5C 304.784,157.415 304.451,159.081 303.5,160.5C 303.499,152.483 303.166,144.483 302.5,136.5 Z" />
    </g>
    <g>
        <path style="opacity:1" fill="#707070"
            d="M 279.5,140.5 C 281.039,143.865 281.706,147.531 281.5,151.5C 281.497,154.355 281.164,157.022 280.5,159.5C 280.653,153.131 280.32,146.797 279.5,140.5 Z" />
    </g>
    <g>
        <path style="opacity:1" fill="#82db01"
            d="M 24.5,131.5 C 24.1667,134.167 23.8333,136.833 23.5,139.5C 22.197,147.197 22.197,154.864 23.5,162.5C 23.196,165.522 22.696,168.522 22,171.5C 21.5,171 21,170.5 20.5,170C 13.5079,169.5 6.50793,169.334 -0.5,169.5C -0.5,159.833 -0.5,150.167 -0.5,140.5C 6.16667,140.5 12.8333,140.5 19.5,140.5C 19.3505,141.552 19.5172,142.552 20,143.5C 21.5836,138.875 23.0836,134.875 24.5,131.5 Z" />
    </g>
    <g>
        <path style="opacity:1" fill="#82db02"
            d="M 207.5,144.5 C 207.24,152.601 207.906,160.601 209.5,168.5C 207.501,167.143 206.335,167.81 206,170.5C 177.667,169.167 149.333,169.167 121,170.5C 120.667,168.5 120.333,166.5 120,164.5C 119.617,165.056 119.117,165.389 118.5,165.5C 118.342,162.098 118.676,158.764 119.5,155.5C 120.416,149.984 120.583,144.317 120,138.5C 121.117,139.949 121.784,141.616 122,143.5C 122.483,142.552 122.649,141.552 122.5,140.5C 150.226,139.847 177.726,140.514 205,142.5C 205.862,140.913 206.529,139.246 207,137.5C 207.497,139.81 207.663,142.143 207.5,144.5 Z" />
    </g>
    <g>
        <path style="opacity:1" fill="#7ad602"
            d="M 209.5,168.5 C 210.301,170.042 210.634,171.708 210.5,173.5C 210.368,176.969 210.368,180.469 210.5,184C 201.452,184.805 192.452,184.639 183.5,183.5C 184.232,184.881 184.232,186.548 183.5,188.5C 170.901,182.301 158.235,181.968 145.5,187.5C 145.762,186.022 145.429,184.689 144.5,183.5C 135.215,184.64 125.881,184.806 116.5,184C 115.848,181.91 115.681,179.743 116,177.5C 115.623,178.942 114.79,179.942 113.5,180.5C 115.623,175.686 117.289,170.686 118.5,165.5C 119.117,165.389 119.617,165.056 120,164.5C 120.333,166.5 120.667,168.5 121,170.5C 149.333,169.167 177.667,169.167 206,170.5C 206.335,167.81 207.501,167.143 209.5,168.5 Z" />
    </g>
    <g>
        <path style="opacity:1" fill="#7bd705"
            d="M 327.5,159.5 C 327.5,168.833 327.5,178.167 327.5,187.5C 317.478,187.832 307.478,187.499 297.5,186.5C 298.309,184.929 298.643,183.262 298.5,181.5C 300.561,174.515 302.228,167.515 303.5,160.5C 304.451,159.081 304.784,157.415 304.5,155.5C 305.29,154.391 305.79,153.058 306,151.5C 306.333,154.5 306.667,157.5 307,160.5C 313.744,159.521 320.578,159.188 327.5,159.5 Z" />
    </g>
    <g>
        <path style="opacity:1" fill="#999999"
            d="M 61.5,182.5 C 66.1304,183.229 70.7971,183.563 75.5,183.5C 73.6965,184.162 71.6965,184.495 69.5,184.5C 66.4733,184.713 63.8066,184.047 61.5,182.5 Z" />
    </g>
    <g>
        <path style="opacity:1" fill="#fdc201"
            d="M 183.5,188.5 C 193.899,196.63 199.566,207.297 200.5,220.5C 200.443,221.609 200.11,222.609 199.5,223.5C 197.914,225.67 196.58,228.004 195.5,230.5C 188.089,239.877 179.089,247.377 168.5,253C 165.167,253.667 161.833,253.667 158.5,253C 147.824,247.489 138.824,239.989 131.5,230.5C 131.5,229.833 131.167,229.5 130.5,229.5C 130.025,227.216 129.025,225.216 127.5,223.5C 126.89,222.609 126.557,221.609 126.5,220.5C 127.408,206.348 133.741,195.348 145.5,187.5C 158.235,181.968 170.901,182.301 183.5,188.5 Z" />
    </g>
    <g>
        <path style="opacity:1" fill="#77d50a"
            d="M 23.5,162.5 C 25.721,176.276 31.721,188.276 41.5,198.5C 26.8112,197.951 12.8112,197.617 -0.5,197.5C -0.5,188.167 -0.5,178.833 -0.5,169.5C 6.50793,169.334 13.5079,169.5 20.5,170C 21,170.5 21.5,171 22,171.5C 22.696,168.522 23.196,165.522 23.5,162.5 Z" />
    </g>
    <g>
        <path style="opacity:1" fill="#fff2b6"
            d="M 155.5,190.5 C 161.925,190.13 168.258,190.63 174.5,192C 179.816,196.084 179.483,199.75 173.5,203C 165.463,205.537 157.796,204.87 150.5,201C 148.213,198.952 148.046,196.785 150,194.5C 151.5,192.531 153.333,191.198 155.5,190.5 Z" />
    </g>
    <g>
        <path style="opacity:1" fill="#6dd004"
            d="M 145.5,187.5 C 133.741,195.348 127.408,206.348 126.5,220.5C 125.686,218.369 125.186,216.036 125,213.5C 124.667,214.833 124.333,216.167 124,217.5C 103.905,216.836 83.7384,216.503 63.5,216.5C 43.1553,216.5 23.1553,217.167 3.5,218.5C 2.16667,217.167 0.833333,215.833 -0.5,214.5C -0.5,208.833 -0.5,203.167 -0.5,197.5C 12.8112,197.617 26.8112,197.951 41.5,198.5C 45.0117,201.17 48.6784,203.67 52.5,206C 79.8802,214.59 100.214,206.09 113.5,180.5C 114.79,179.942 115.623,178.942 116,177.5C 115.681,179.743 115.848,181.91 116.5,184C 125.881,184.806 135.215,184.64 144.5,183.5C 145.429,184.689 145.762,186.022 145.5,187.5 Z" />
    </g>
    <g>
        <path style="opacity:1" fill="#6dd004"
            d="M 210.5,173.5 C 212.928,180.351 216.428,186.684 221,192.5C 232.452,206.875 247.285,212.375 265.5,209C 280.294,204.371 291.294,195.204 298.5,181.5C 298.643,183.262 298.309,184.929 297.5,186.5C 307.478,187.499 317.478,187.832 327.5,187.5C 327.5,196.833 327.5,206.167 327.5,215.5C 325.937,216.945 324.604,218.611 323.5,220.5C 322.347,219.687 322.347,218.687 323.5,217.5C 283.172,216.5 242.839,216.167 202.5,216.5C 202.657,215.127 202.49,213.793 202,212.5C 201.817,215.365 201.317,218.031 200.5,220.5C 199.566,207.297 193.899,196.63 183.5,188.5C 184.232,186.548 184.232,184.881 183.5,183.5C 192.452,184.639 201.452,184.805 210.5,184C 210.368,180.469 210.368,176.969 210.5,173.5 Z" />
    </g>
    <g>
        <path style="opacity:1" fill="#9d9d9d"
            d="M 247.5,182.5 C 251.768,183.373 256.102,183.706 260.5,183.5C 256.689,184.645 252.689,184.812 248.5,184C 247.944,183.617 247.611,183.117 247.5,182.5 Z" />
    </g>
    <g>
        <path style="opacity:1" fill="#64cc00"
            d="M 126.5,220.5 C 126.557,221.609 126.89,222.609 127.5,223.5C 114.897,230.899 101.897,237.733 88.5,244C 72.3587,247.083 56.192,247.249 40,244.5C 30.1083,241.971 21.2749,237.471 13.5,231C 9.30826,227.411 5.97493,223.244 3.5,218.5C 23.1553,217.167 43.1553,216.5 63.5,216.5C 83.7384,216.503 103.905,216.836 124,217.5C 124.333,216.167 124.667,214.833 125,213.5C 125.186,216.036 125.686,218.369 126.5,220.5 Z" />
    </g>
    <g>
        <path style="opacity:1" fill="#64cc00"
            d="M 323.5,220.5 C 308.167,238.66 288.5,247.327 264.5,246.5C 248.555,247.239 233.722,243.572 220,235.5C 213.732,232.286 207.898,228.452 202.5,224C 201.552,223.517 200.552,223.351 199.5,223.5C 200.11,222.609 200.443,221.609 200.5,220.5C 201.317,218.031 201.817,215.365 202,212.5C 202.49,213.793 202.657,215.127 202.5,216.5C 242.839,216.167 283.172,216.5 323.5,217.5C 322.347,218.687 322.347,219.687 323.5,220.5 Z" />
    </g>
    <g>
        <path style="opacity:0.999" fill="#19b000"
            d="M -0.5,214.5 C 0.833333,215.833 2.16667,217.167 3.5,218.5C 5.97493,223.244 9.30826,227.411 13.5,231C 21.2749,237.471 30.1083,241.971 40,244.5C 56.192,247.249 72.3587,247.083 88.5,244C 101.897,237.733 114.897,230.899 127.5,223.5C 129.025,225.216 130.025,227.216 130.5,229.5C 132.211,246.082 135.544,262.416 140.5,278.5C 140.631,279.376 140.298,280.043 139.5,280.5C 138.376,278.631 137.543,276.631 137,274.5C 136.751,275.624 136.251,276.624 135.5,277.5C 87.7618,277.039 42.4285,277.039 -0.5,277.5C -0.5,256.5 -0.5,235.5 -0.5,214.5 Z" />
    </g>
    <g>
        <path style="opacity:1" fill="#19b000"
            d="M 327.5,215.5 C 327.5,236.167 327.5,256.833 327.5,277.5C 323.068,276.868 318.568,276.534 314,276.5C 311.26,278.36 308.76,278.36 306.5,276.5C 284.388,277.721 262.554,277.721 241,276.5C 240.311,277.357 239.478,278.023 238.5,278.5C 236.833,277.167 235.167,275.833 233.5,274.5C 232.166,276.417 230.333,277.417 228,277.5C 222.997,276.17 217.997,276.17 213,277.5C 211.667,276.833 210.667,275.833 210,274.5C 209.653,276.18 208.653,277.18 207,277.5C 203.246,277.469 199.579,277.135 196,276.5C 193.464,278.774 191.464,278.107 190,274.5C 189.527,276.779 188.527,278.779 187,280.5C 186.536,279.906 186.369,279.239 186.5,278.5C 188.909,270.368 191.242,262.201 193.5,254C 194.785,247.224 195.451,240.391 195.5,233.5C 195.5,232.5 195.5,231.5 195.5,230.5C 196.58,228.004 197.914,225.67 199.5,223.5C 200.552,223.351 201.552,223.517 202.5,224C 207.898,228.452 213.732,232.286 220,235.5C 233.722,243.572 248.555,247.239 264.5,246.5C 288.5,247.327 308.167,238.66 323.5,220.5C 324.604,218.611 325.937,216.945 327.5,215.5 Z" />
    </g>
    <g>
        <path style="opacity:1" fill="#f29000"
            d="M 131.5,230.5 C 138.824,239.989 147.824,247.489 158.5,253C 161.833,253.667 165.167,253.667 168.5,253C 179.089,247.377 188.089,239.877 195.5,230.5C 195.5,231.5 195.5,232.5 195.5,233.5C 192.673,243.827 188.173,253.494 182,262.5C 169.581,274.488 157.248,274.488 145,262.5C 137.997,252.834 133.497,242.167 131.5,230.5 Z" />
    </g>
    <g>
        <path style="opacity:1" fill="#169500"
            d="M 130.5,229.5 C 131.167,229.5 131.5,229.833 131.5,230.5C 133.497,242.167 137.997,252.834 145,262.5C 157.248,274.488 169.581,274.488 182,262.5C 188.173,253.494 192.673,243.827 195.5,233.5C 195.451,240.391 194.785,247.224 193.5,254C 191.242,262.201 188.909,270.368 186.5,278.5C 183.47,284.039 179.803,289.206 175.5,294C 168.123,299.568 160.457,299.902 152.5,295C 147.622,290.052 143.622,284.552 140.5,278.5C 135.544,262.416 132.211,246.082 130.5,229.5 Z" />
    </g>
    <g>
        <path style="opacity:0.993" fill="#10ac00"
            d="M 140.5,278.5 C 143.622,284.552 147.622,290.052 152.5,295C 160.457,299.902 168.123,299.568 175.5,294C 179.803,289.206 183.47,284.039 186.5,278.5C 186.369,279.239 186.536,279.906 187,280.5C 188.527,278.779 189.527,276.779 190,274.5C 191.464,278.107 193.464,278.774 196,276.5C 199.579,277.135 203.246,277.469 207,277.5C 208.653,277.18 209.653,276.18 210,274.5C 210.667,275.833 211.667,276.833 213,277.5C 217.997,276.17 222.997,276.17 228,277.5C 230.333,277.417 232.166,276.417 233.5,274.5C 235.167,275.833 236.833,277.167 238.5,278.5C 239.478,278.023 240.311,277.357 241,276.5C 262.554,277.721 284.388,277.721 306.5,276.5C 308.76,278.36 311.26,278.36 314,276.5C 318.568,276.534 323.068,276.868 327.5,277.5C 327.5,279.833 327.5,282.167 327.5,284.5C 325.868,287.558 324.701,290.891 324,294.5C 322.476,296.898 320.976,299.231 319.5,301.5C 316.921,301.083 314.754,301.75 313,303.5C 311.667,300.833 310.333,300.833 309,303.5C 306.106,302.22 302.939,301.554 299.5,301.5C 295.972,301.589 292.638,302.256 289.5,303.5C 287.207,302.295 284.707,301.628 282,301.5C 279.293,301.628 276.793,302.295 274.5,303.5C 271.5,300.833 268.5,300.833 265.5,303.5C 259.17,302.207 252.67,301.54 246,301.5C 239.426,301.522 233.093,302.189 227,303.5C 225.165,301.036 223.165,301.036 221,303.5C 219.394,301.016 217.894,301.016 216.5,303.5C 212.021,301.862 207.354,300.862 202.5,300.5C 199.59,300.914 196.923,301.914 194.5,303.5C 193.167,300.833 191.833,300.833 190.5,303.5C 185.374,300.873 180.208,300.873 175,303.5C 170.458,300.88 165.958,300.88 161.5,303.5C 157.015,302.226 152.348,301.559 147.5,301.5C 142.652,301.559 137.985,302.226 133.5,303.5C 130.7,302.268 127.7,301.601 124.5,301.5C 121.3,301.601 118.3,302.268 115.5,303.5C 108.334,302.202 101,301.535 93.5,301.5C 85.872,301.551 78.372,302.217 71,303.5C 67.454,300.896 63.954,300.896 60.5,303.5C 46.4312,301.853 32.2645,300.853 18,300.5C 16.0036,300.996 14.3369,301.996 13,303.5C 12.6667,302.833 12.3333,302.167 12,301.5C 11.5831,302.756 10.7498,303.423 9.5,303.5C 7.22434,301.669 5.391,299.336 4,296.5C 2.7691,292.296 1.2691,288.296 -0.5,284.5C -0.5,282.167 -0.5,279.833 -0.5,277.5C 42.4285,277.039 87.7618,277.039 135.5,277.5C 136.251,276.624 136.751,275.624 137,274.5C 137.543,276.631 138.376,278.631 139.5,280.5C 140.298,280.043 140.631,279.376 140.5,278.5 Z" />
    </g>
    <g>
        <path style="opacity:0.986" fill="#08a800"
            d="M 319.5,301.5 C 316.468,307.042 312.468,311.875 307.5,316C 303.759,318.622 299.926,321.122 296,323.5C 291.892,324.368 288.058,325.701 284.5,327.5C 203.833,327.5 123.167,327.5 42.5,327.5C 29.5528,323.933 18.7194,316.933 10,306.5C 9.51722,305.552 9.35055,304.552 9.5,303.5C 10.7498,303.423 11.5831,302.756 12,301.5C 12.3333,302.167 12.6667,302.833 13,303.5C 14.3369,301.996 16.0036,300.996 18,300.5C 32.2645,300.853 46.4312,301.853 60.5,303.5C 63.954,300.896 67.454,300.896 71,303.5C 78.372,302.217 85.872,301.551 93.5,301.5C 101,301.535 108.334,302.202 115.5,303.5C 118.3,302.268 121.3,301.601 124.5,301.5C 127.7,301.601 130.7,302.268 133.5,303.5C 137.985,302.226 142.652,301.559 147.5,301.5C 152.348,301.559 157.015,302.226 161.5,303.5C 165.958,300.88 170.458,300.88 175,303.5C 180.208,300.873 185.374,300.873 190.5,303.5C 191.833,300.833 193.167,300.833 194.5,303.5C 196.923,301.914 199.59,300.914 202.5,300.5C 207.354,300.862 212.021,301.862 216.5,303.5C 217.894,301.016 219.394,301.016 221,303.5C 223.165,301.036 225.165,301.036 227,303.5C 233.093,302.189 239.426,301.522 246,301.5C 252.67,301.54 259.17,302.207 265.5,303.5C 268.5,300.833 271.5,300.833 274.5,303.5C 276.793,302.295 279.293,301.628 282,301.5C 284.707,301.628 287.207,302.295 289.5,303.5C 292.638,302.256 295.972,301.589 299.5,301.5C 302.939,301.554 306.106,302.22 309,303.5C 310.333,300.833 311.667,300.833 313,303.5C 314.754,301.75 316.921,301.083 319.5,301.5 Z" />
    </g>
</svg>